<svg width="38" height="38" viewBox="0 0 38 38" fill="none" xmlns="http://www.w3.org/2000/svg">
<path fill-rule="evenodd" clip-rule="evenodd" d="M19.0001 0.726379C8.87508 0.726379 0.666748 8.93471 0.666748 19.0597C0.666748 29.1847 8.87508 37.393 19.0001 37.393C29.1251 37.393 37.3334 29.1847 37.3334 19.0597C37.3334 8.93471 29.1251 0.726379 19.0001 0.726379ZM26.9467 15.9597C27.0931 15.7924 27.2045 15.5976 27.2744 15.3867C27.3443 15.1757 27.3713 14.9529 27.3539 14.7314C27.3364 14.5098 27.2748 14.294 27.1727 14.0966C27.0706 13.8992 26.9301 13.7242 26.7593 13.5819C26.5886 13.4397 26.3911 13.333 26.1786 13.2681C25.966 13.2033 25.7426 13.1816 25.5216 13.2044C25.3005 13.2272 25.0862 13.294 24.8913 13.4008C24.6964 13.5076 24.5249 13.6523 24.3867 13.8264L17.2201 22.4247L13.5117 18.7147C13.1974 18.4111 12.7764 18.2431 12.3394 18.2469C11.9024 18.2507 11.4844 18.426 11.1754 18.735C10.8664 19.044 10.6911 19.462 10.6873 19.899C10.6835 20.336 10.8515 20.757 11.1551 21.0714L16.1551 26.0714C16.3188 26.235 16.5149 26.3628 16.7308 26.4465C16.9466 26.5302 17.1776 26.568 17.4089 26.5575C17.6401 26.547 17.8667 26.4884 18.0741 26.3855C18.2815 26.2825 18.4652 26.1375 18.6134 25.9597L26.9467 15.9597Z" fill="#545454"/>
</svg>
