<svg width="30" height="30" viewBox="0 0 30 30" fill="none" xmlns="http://www.w3.org/2000/svg">
<path d="M20.8334 10.0002V7.54183C20.8334 6.77578 20.6825 6.01724 20.3893 5.30951C20.0962 4.60178 19.6665 3.95871 19.1248 3.41704C18.5832 2.87536 17.9401 2.44568 17.2324 2.15253C16.5246 1.85938 15.7661 1.7085 15 1.7085C14.234 1.7085 13.4755 1.85938 12.7677 2.15253C12.06 2.44568 11.4169 2.87536 10.8753 3.41704C10.3336 3.95871 9.9039 4.60178 9.61074 5.30951C9.31759 6.01724 9.16671 6.77578 9.16671 7.54183V13.3752C9.16671 13.5962 9.2545 13.8081 9.41079 13.9644C9.56707 14.1207 9.77903 14.2085 10 14.2085C10.2211 14.2085 10.433 14.1207 10.5893 13.9644C10.7456 13.8081 10.8334 13.5962 10.8334 13.3752V11.6668H17.5V10.0002H10.8334V7.54183C10.8334 6.43676 11.2724 5.37695 12.0538 4.59555C12.8352 3.81415 13.895 3.37516 15 3.37516C16.1051 3.37516 17.1649 3.81415 17.9463 4.59555C18.7277 5.37695 19.1667 6.43676 19.1667 7.54183V13.3335C19.1667 13.5545 19.2545 13.7665 19.4108 13.9228C19.5671 14.079 19.779 14.1668 20 14.1668C20.2211 14.1668 20.433 14.079 20.5893 13.9228C20.7456 13.7665 20.8334 13.5545 20.8334 13.3335V11.6668H25V26.6668H5.00004V11.6668H7.50004V10.0002H3.33337V26.7418C3.33337 27.164 3.50107 27.5688 3.79956 27.8673C4.09806 28.1658 4.5029 28.3335 4.92504 28.3335H25.075C25.4972 28.3335 25.902 28.1658 26.2005 27.8673C26.499 27.5688 26.6667 27.164 26.6667 26.7418V10.0002H20.8334Z" fill="#545454"/>
</svg>
