<svg width="26" height="22" viewBox="0 0 26 22" fill="none" xmlns="http://www.w3.org/2000/svg">
<path fill-rule="evenodd" clip-rule="evenodd" d="M25.5001 10.9395C25.5001 11.3539 25.3355 11.7513 25.0425 12.0443C24.7494 12.3374 24.352 12.502 23.9376 12.502H5.83448L12.5439 19.2082C12.6891 19.3535 12.8044 19.526 12.883 19.7158C12.9616 19.9056 13.0021 20.109 13.0021 20.3145C13.0021 20.5199 12.9616 20.7234 12.883 20.9132C12.8044 21.103 12.6891 21.2754 12.5439 21.4207C12.3986 21.566 12.2261 21.6812 12.0363 21.7599C11.8465 21.8385 11.6431 21.8789 11.4376 21.8789C11.2322 21.8789 11.0287 21.8385 10.8389 21.7599C10.6491 21.6812 10.4766 21.566 10.3314 21.4207L0.956357 12.0457C0.810847 11.9006 0.6954 11.7282 0.61663 11.5383C0.53786 11.3485 0.497314 11.145 0.497314 10.9395C0.497314 10.734 0.53786 10.5304 0.61663 10.3406C0.6954 10.1508 0.810847 9.97837 0.956357 9.83322L10.3314 0.458224C10.6248 0.164828 11.0227 0 11.4376 0C11.8525 0 12.2505 0.164828 12.5439 0.458224C12.8373 0.75162 13.0021 1.14955 13.0021 1.56447C13.0021 1.9794 12.8373 2.37733 12.5439 2.67072L5.83448 9.37697H23.9376C24.352 9.37697 24.7494 9.54159 25.0425 9.83462C25.3355 10.1276 25.5001 10.5251 25.5001 10.9395Z" fill="black"/>
</svg>
